<svg xmlns="http://www.w3.org/2000/svg" xmlns:xlink="http://www.w3.org/1999/xlink" width="40" height="40" viewBox="0 0 40 40">
    <defs>
        <path id="prefix__a" d="M0 0.442L22.733 0.442 22.733 23.175 0 23.175z"/>
    </defs>
    <g fill="none" fill-rule="evenodd">
        <circle cx="20" cy="20" r="20" fill="#888"/>
        <g>
            <g transform="translate(9 8)">
                <mask id="prefix__b" fill="#fff">
                    <use xlink:href="#prefix__a"/>
                </mask>
                <path fill="#FEFEFE" d="M20.64 16.783c0 2.404-1.95 4.355-4.357 4.355H6.45c-2.405 0-4.355-1.951-4.355-4.355V6.948c0-2.406 1.95-4.356 4.355-4.356h9.834c2.406 0 4.356 1.95 4.356 4.356v9.835zM16.17.442H6.563C2.938.442 0 3.38 0 7.004v9.61c0 3.623 2.938 6.56 6.562 6.56h9.609c3.624 0 6.562-2.937 6.562-6.56v-9.61c0-3.624-2.938-6.562-6.562-6.562z" mask="url(#prefix__b)"/>
            </g>
            <path fill="#FEFEFE" d="M11.587 15.923c-2.074 0-3.756-1.683-3.756-3.757s1.682-3.754 3.756-3.754 3.756 1.68 3.756 3.754-1.682 3.757-3.756 3.757m0-9.55c-3.2 0-5.793 2.594-5.793 5.793 0 3.201 2.594 5.794 5.793 5.794 3.2 0 5.794-2.593 5.794-5.794 0-3.199-2.594-5.793-5.794-5.793M17.67 4.635c-.8 0-1.448.649-1.448 1.448 0 .8.648 1.449 1.449 1.449.8 0 1.448-.649 1.448-1.449s-.647-1.448-1.448-1.448" transform="translate(9 8)"/>
        </g>
    </g>
</svg>
