<svg xmlns="http://www.w3.org/2000/svg" xmlns:xlink="http://www.w3.org/1999/xlink" width="40" height="40" viewBox="0 0 40 40">
    <defs>
        <path id="prefix__a" d="M10 14L30.001 14 30.001 28.413 10 28.413z"/>
    </defs>
    <g fill="none" fill-rule="evenodd">
        <circle cx="20" cy="20" r="20" fill="#888"/>
        <mask id="prefix__b" fill="#fff">
            <use xlink:href="#prefix__a"/>
        </mask>
        <path fill="#FEFEFE" d="M17.603 23.811v-5.21l4.794 2.544-4.794 2.666zm12.095-7.186c-.384-1.555-1.098-2.151-2.414-2.365-.756-.115-4.395-.26-7.283-.26-2.89 0-6.528.145-7.284.26-1.316.214-2.033.814-2.412 2.365-.13.517-.305 3.373-.305 4.46v.241c0 1.089.176 3.943.305 4.464.38 1.55 1.096 2.147 2.412 2.362.756.115 4.399.259 7.29.259l-.012.002c2.891 0 6.531-.146 7.289-.261 1.316-.215 2.03-.812 2.414-2.362.128-.52.303-3.375.303-4.464v-.24c0-1.088-.175-3.944-.303-4.461z" mask="url(#prefix__b)"/>
    </g>
</svg>
