<svg xmlns="http://www.w3.org/2000/svg" width="124" height="34" viewBox="0 0 124 34">
    <defs>
        <clipPath id="83lnqeszaa">
            <path style="fill:none" d="M0 0h124v34H0z"/>
        </clipPath>
    </defs>
    <g style="isolation:isolate;clip-path:url(#83lnqeszaa)">
        <path data-name="패스 210214" d="M11.909 4.979a4.979 4.979 0 1 0-9.958 0v22.046a4.481 4.481 0 0 0 .024.464 4.977 4.977 0 0 0 9.911 0c.015-.152.023-.307.023-.464V4.979" transform="translate(-.417 1.052)" style="fill:#2b63ff"/>
        <path data-name="패스 210215" d="M6.42 27.646s10.376.986 17.716-5.95a22.143 22.143 0 0 0 7-14.985l-9.965-.168s.09 5.25-3.6 8.191c-2.958 2.358-6.815 3.15-10.853 2.959z" transform="translate(-1.517 -.559)" style="fill:#f70"/>
        <path data-name="패스 210216" d="M1.951 9.75a26.089 26.089 0 0 1 20.587 5.51 20.275 20.275 0 0 1 7.485 14.161l-9.817 1.089s-1.084-5.388-4.888-8.349-7.77-4.138-13.367-3.761z" transform="translate(-.417 -1.265)" style="fill:#2b63ff"/>
        <path data-name="패스 210217" d="M35.94 34.219a4.979 4.979 0 1 1-4.979-4.979 4.979 4.979 0 0 1 4.979 4.979" transform="translate(-6.333 -6.146)" style="fill:#7b9fff"/>
        <path data-name="패스 210218" d="M35.94 4.989A4.979 4.979 0 1 1 30.961.01a4.979 4.979 0 0 1 4.979 4.979" transform="translate(-6.333 1.05)" style="fill:#ffb459"/>
        <path data-name="패스 210219" d="M9.958 26.309a4.979 4.979 0 1 1-4.979-4.979 4.979 4.979 0 0 1 4.979 4.979" transform="translate(.063 -4.199)" style="fill:#ffb459"/>
        <g>
            <path data-name="패스 210235" d="M2.639 3.741c-1.1 0-2.514-.582-2.514-1.808C.125.645 1.611.125 2.639.125c1.127 0 2.527.557 2.527 1.809 0 1.288-1.5 1.808-2.527 1.808m.484 1.387v1.064a.405.405 0 0 1-.433.372H2.3a.406.406 0 0 1-.434-.372V5.128H.608a.4.4 0 0 1-.433-.371v-.31a.4.4 0 0 1 .433-.371h3.134c.359 0 .805-.013 1.288-.05a.41.41 0 0 1 .47.374v.273a.412.412 0 0 1-.384.371c-.483.049-1.052.087-1.436.087zm-.484-4.013c-.792 0-1.324.371-1.324.83 0 .433.519.842 1.324.842s1.338-.409 1.338-.842c0-.483-.545-.83-1.338-.83m-.3 6.861a.406.406 0 0 1-.434-.372v-.223a.405.405 0 0 1 .434-.371h6.753a.4.4 0 0 1 .433.371v1.77a.405.405 0 0 1-.433.372H3.333v.619h6.006a.4.4 0 0 1 .433.372v.26a.4.4 0 0 1-.433.372H2.4a.405.405 0 0 1-.433-.372V8.992a.4.4 0 0 1 .433-.371h5.775v-.644zm3.69-2.465V.72a.4.4 0 0 1 .437-.372h.384a.4.4 0 0 1 .433.372v5.462a.4.4 0 0 1-.433.371h-.384a.457.457 0 0 1-.359-.153H4.46a.4.4 0 0 1-.433-.371v-.145a.4.4 0 0 1 .433-.371zm2.7 1.065a.4.4 0 0 1-.429-.371V.72a.4.4 0 0 1 .432-.372h.4a.4.4 0 0 1 .43.372v5.486a.4.4 0 0 1-.433.371z" transform="translate(39.491 22.603)" style="fill:#575a63"/>
            <path data-name="패스 210236" d="M2.639 3.741c-1.1 0-2.514-.582-2.514-1.808C.125.645 1.611.125 2.639.125c1.127 0 2.527.557 2.527 1.809 0 1.288-1.499 1.807-2.527 1.807zm.484 1.387v1.065a.405.405 0 0 1-.433.372H2.3a.406.406 0 0 1-.434-.372V5.128H.608a.4.4 0 0 1-.433-.371v-.31a.4.4 0 0 1 .433-.371h3.134c.359 0 .805-.013 1.288-.05a.41.41 0 0 1 .47.374v.273a.412.412 0 0 1-.384.371c-.483.049-1.052.087-1.436.087zm-.484-4.012c-.792 0-1.324.371-1.324.83 0 .433.519.842 1.324.842s1.338-.409 1.338-.842c0-.483-.545-.83-1.338-.83zm-.3 6.861a.406.406 0 0 1-.434-.372v-.223a.405.405 0 0 1 .434-.371h6.753a.4.4 0 0 1 .433.371v1.77a.405.405 0 0 1-.433.372H3.333v.619h6.006a.4.4 0 0 1 .433.372v.26a.4.4 0 0 1-.433.372H2.4a.405.405 0 0 1-.433-.372V8.992a.4.4 0 0 1 .433-.371h5.775v-.644zm3.69-2.465V.72a.4.4 0 0 1 .437-.372h.384a.4.4 0 0 1 .433.372v5.462a.4.4 0 0 1-.433.371h-.384a.457.457 0 0 1-.359-.153H4.46a.4.4 0 0 1-.433-.371v-.145a.4.4 0 0 1 .433-.371zm2.7 1.065a.4.4 0 0 1-.429-.371V.72a.4.4 0 0 1 .432-.372h.4a.4.4 0 0 1 .43.372v5.486a.4.4 0 0 1-.433.371z" transform="translate(39.491 22.603)" style="stroke:#575a63;stroke-miterlimit:10;stroke-width:.25px;fill:none"/>
            <path data-name="패스 210237" d="M18.07 9.492a.406.406 0 0 1 .43-.372h8.781a.4.4 0 0 1 .433.372v.359a.4.4 0 0 1-.433.371H18.5a.405.405 0 0 1-.434-.371zm4.125-8.458a.405.405 0 0 1 .433-.372h.52a.4.4 0 0 1 .433.372v.793c.013 1.968 1.672 3.48 3.431 4.173a.353.353 0 0 1 .161.619l-.21.236a.511.511 0 0 1-.483.086 7.092 7.092 0 0 1-3.542-3 6.833 6.833 0 0 1-3.6 3.01.569.569 0 0 1-.508-.112l-.2-.21a.344.344 0 0 1 .149-.607c1.9-.755 3.381-2.241 3.418-4.2z" transform="translate(33.133 22.413)" style="fill:#575a63"/>
            <path data-name="패스 210238" d="M18.07 9.492a.406.406 0 0 1 .43-.372h8.781a.4.4 0 0 1 .433.372v.359a.4.4 0 0 1-.433.371H18.5a.405.405 0 0 1-.434-.371zm4.125-8.458a.405.405 0 0 1 .433-.372h.52a.4.4 0 0 1 .433.372v.793c.013 1.968 1.672 3.48 3.431 4.173a.353.353 0 0 1 .161.619l-.21.236a.511.511 0 0 1-.483.086 7.092 7.092 0 0 1-3.542-3 6.833 6.833 0 0 1-3.6 3.01.569.569 0 0 1-.508-.112l-.2-.21a.344.344 0 0 1 .149-.607c1.9-.755 3.381-2.241 3.418-4.2z" transform="translate(33.133 22.413)" style="stroke:#575a63;stroke-miterlimit:10;stroke-width:.25px;fill:none"/>
        </g>
        <g>
            <path data-name="패스 210227" d="M133.472 10.53a5.957 5.957 0 0 0-1.328-2.113 5.809 5.809 0 0 0-2.059-1.342 7.833 7.833 0 0 0-5.314 0 5.9 5.9 0 0 0-2.059 1.325 5.82 5.82 0 0 0-1.328 2.1 7.833 7.833 0 0 0-.465 2.777 7.909 7.909 0 0 0 .465 2.8 5.911 5.911 0 0 0 1.315 2.1 5.742 5.742 0 0 0 2.047 1.328 7.974 7.974 0 0 0 5.367 0 5.668 5.668 0 0 0 2.046-1.342 6.052 6.052 0 0 0 1.315-2.113 7.82 7.82 0 0 0 .465-2.776 7.745 7.745 0 0 0-.465-2.75m-6.045 6.04a3.277 3.277 0 1 1 3.277-3.277 3.277 3.277 0 0 1-3.277 3.277" transform="translate(-25.711 -1.284)" style="fill:#2b2b2b"/>
            <path data-name="패스 210228" d="M60.617 13.51a6.616 6.616 0 0 0-3.188-1.474l-1.3-.319a2.691 2.691 0 0 1-1.156-.478.946.946 0 0 1-.332-.744 1.036 1.036 0 0 1 .585-.943 3.3 3.3 0 0 1 1.62-.332 5.832 5.832 0 0 1 1.023.093q.518.093.983.226c.082.024.162.048.24.073a.086.086 0 0 0 .027.006 1.223 1.223 0 0 0 1.115-2.169.455.455 0 0 0-.041-.037 3.607 3.607 0 0 0-.411-.224 5.783 5.783 0 0 0-1.408-.425 9.993 9.993 0 0 0-1.774-.148 6.176 6.176 0 0 0-3.879 1.076 3.388 3.388 0 0 0-1.382 2.8 3.193 3.193 0 0 0 .943 2.418 6.145 6.145 0 0 0 2.91 1.355l1.488.345q1.594.346 1.594 1.435a1.123 1.123 0 0 1-.558 1 3.072 3.072 0 0 1-1.648.359 6.833 6.833 0 0 1-2.245-.372 6.378 6.378 0 0 1-.745-.29h-.008a.34.34 0 0 0-.064-.019 1.2 1.2 0 0 0-.406-.074 1.22 1.22 0 0 0-.972 1.964.3.3 0 0 0 .018.03c.02.025.045.047.067.072s.022.024.034.035a2.921 2.921 0 0 0 .91.637 6.159 6.159 0 0 0 1.541.465 11.29 11.29 0 0 0 1.979.16 6.6 6.6 0 0 0 4.039-1.05 3.448 3.448 0 0 0 1.382-2.91 3.409 3.409 0 0 0-.983-2.537" transform="translate(-11.648 -1.285)" style="fill:#2b2b2b"/>
            <path data-name="패스 210229" d="M90.1 7.764a6.99 6.99 0 0 0-4.158-1.115 12.436 12.436 0 0 0-1.992.159 6.42 6.42 0 0 0-1.579.409 1.032 1.032 0 0 0-.31.208 1.193 1.193 0 0 0 .793 2.089 1.129 1.129 0 0 0 .116-.012.347.347 0 0 0 .08-.006h.018l.046-.009c.143-.027.3-.061.408-.084a9.982 9.982 0 0 1 2.074-.173 3.751 3.751 0 0 1 2.059.478 1.652 1.652 0 0 1 .731 1.488v.253a.565.565 0 0 1-.565.565h-2.133c-.223 0-.736.015-1.048.049a4.805 4.805 0 0 0-2.762 1.127 3.514 3.514 0 0 0-1.129 2.723 3.447 3.447 0 0 0 1.528 3.069 6.053 6.053 0 0 0 3.772 1.033h.12-.018s1.372.026 2.971-.027H89.205a2.518 2.518 0 0 0 2.45-2.5v-5.96c0-1.867-.518-3.019-1.554-3.764m-1.718 7.606v1.837s-.035.256-.565.256h-1.773a5.012 5.012 0 0 1-.812-.054 2.724 2.724 0 0 1-.858-.259 1.436 1.436 0 0 1-.748-1.307 1.377 1.377 0 0 1 .494-1.163 1.949 1.949 0 0 1 1.084-.412c.326-.036.908-.047 1.37-.047h1.244a.566.566 0 0 1 .565.566zm3.265 2.042v.039-.039" transform="translate(-17.591 -1.292)" style="fill:#2b2b2b"/>
            <path data-name="패스 210230" d="M74.623 16.431c-.037 0-.071.008-.107.01a.232.232 0 0 0-.047 0 7.1 7.1 0 0 1-1.021.068A2.439 2.439 0 0 1 72 16.137a1.4 1.4 0 0 1-.519-1.222V9.688a.565.565 0 0 1 .566-.565H74.623a1.314 1.314 0 0 0 0-2.629h-2.576a.565.565 0 0 1-.566-.566V4.379a1.66 1.66 0 0 0-1.66-1.66c-.045 0-.086.01-.13.013h-.016a.111.111 0 0 0-.015 0 1.655 1.655 0 0 0-1.5 1.644v10.751a3.72 3.72 0 0 0 1.21 3.122 5.247 5.247 0 0 0 3.308.944h.033a12.341 12.341 0 0 0 2.157-.157l.032-.006h.024a.146.146 0 0 0 .048-.018 1.311 1.311 0 0 0-.348-2.576" transform="translate(-15.047 -.498)" style="fill:#2b2b2b"/>
            <path data-name="패스 210231" d="M105.606 16.43c-.037 0-.071.008-.107.011a.185.185 0 0 0-.047 0 7.1 7.1 0 0 1-1.021.068 2.441 2.441 0 0 1-1.448-.373 1.4 1.4 0 0 1-.519-1.222V9.687a.565.565 0 0 1 .566-.566H105.606a1.314 1.314 0 0 0 0-2.629h-2.576a.565.565 0 0 1-.566-.566V4.378a1.661 1.661 0 0 0-1.66-1.66 1.934 1.934 0 0 0-.206.014 1.661 1.661 0 0 0-1.455 1.647v10.747a3.72 3.72 0 0 0 1.21 3.122 5.247 5.247 0 0 0 3.308.944h.033a12.342 12.342 0 0 0 2.157-.157l.033-.006h.023a.146.146 0 0 0 .048-.018 1.311 1.311 0 0 0-.348-2.576" transform="translate(-21.31 -.497)" style="fill:#2b2b2b"/>
            <path data-name="패스 210232" d="M114.272 6.638a1.674 1.674 0 0 0-1.672 1.674V18.3a1.674 1.674 0 0 0 3.348 0V8.312a1.674 1.674 0 0 0-1.674-1.674" transform="translate(-24.029 -1.29)" style="fill:#2b2b2b"/>
            <path data-name="패스 210233" d="M153.507 10.392a3.31 3.31 0 0 0-1.307-2.833 5.139 5.139 0 0 0-1.913-1 9.221 9.221 0 0 0-2.623-.288h-.593a9.289 9.289 0 0 0-2.643.288 5.139 5.139 0 0 0-1.913 1 3.31 3.31 0 0 0-1.309 2.833v7.852a1.687 1.687 0 0 0 3.246.644 1.316 1.316 0 0 0 .049-.132l.006-.02a1.424 1.424 0 0 0 .059-.282c0-.025.006-.05.007-.076s.007-.045.007-.069V10.8a1.3 1.3 0 0 1 .748-1.26 4.279 4.279 0 0 1 1.8-.309h.452a4.281 4.281 0 0 1 1.8.309 1.3 1.3 0 0 1 .748 1.26v7.511c0 .024.006.046.007.069s0 .051.007.076a1.369 1.369 0 0 0 .059.282l.006.02c.015.045.029.089.048.132a1.687 1.687 0 0 0 3.247-.644v-.087z" transform="translate(-29.812 -1.215)" style="fill:#2b2b2b"/>
            <path data-name="패스 210226" d="M116.315 2.169A2.169 2.169 0 1 1 114.146 0a2.17 2.17 0 0 1 2.169 2.169" transform="translate(-23.904 .052)" style="fill:#2b63ff"/>
        </g>
    </g>
</svg>
